<!DOCTYPE svg PUBLIC "-//W3C//DTD SVG 1.1//EN" "http://www.w3.org/Graphics/SVG/1.1/DTD/svg11.dtd">
<!-- Uploaded to: SVG Repo, www.svgrepo.com, Transformed by: SVG Repo Mixer Tools -->
<svg width="72px" height="72px" viewBox="-4.8 -4.8 33.60 33.60" version="1.1" xmlns="http://www.w3.org/2000/svg" xmlns:xlink="http://www.w3.org/1999/xlink" fill="#000000">
<g id="SVGRepo_bgCarrier" stroke-width="0"/>
<g id="SVGRepo_tracerCarrier" stroke-linecap="round" stroke-linejoin="round"/>
<g id="SVGRepo_iconCarrier"> <!-- Uploaded to: SVG Repo, www.svgrepo.com, Transformed by: SVG Repo Mixer Tools --> <title>ic_fluent_select_all_24_regular</title> <desc>Created with Sketch.</desc> <g id="Product-Icons" stroke-width="0.00024000000000000003" fill="none" fill-rule="evenodd"> <g id="ic_fluent_select_all_24_regular" fill="#212121" fill-rule="nonzero"> <path d="M 21.17 5.601 C 22.046 5.908 22.89 6.692 22.89 7.673 L 22.89 17.691 C 22.839 21.168 20.72 22.938 18.373 22.938 L 7.75 22.938 C 6.769 22.938 5.831 22.041 5.524 21.165 L 7.724 21.165 L 18.288 21.165 C 20.308 20.857 21.058 19.449 21.17 17.648 L 21.17 7.75 L 21.17 7.648 L 21.17 5.601 Z M 17.247 2 C 18.489 2 19.497 3.007 19.497 4.25 L 19.497 17.247 C 19.497 18.489 18.489 19.497 17.247 19.497 L 4.25 19.497 C 3.007 19.497 2 18.489 2 17.247 L 2 4.25 C 2 3.007 3.007 2 4.25 2 L 17.247 2 Z M 17.04 4.134 L 4.834 4.134 C 4.111 4.134 3.948 4.406 3.948 4.82 L 3.955 16.48 C 3.955 16.894 4.143 17.484 4.713 17.484 L 16.858 17.484 C 17.552 17.484 17.674 17.05 17.636 16.275 L 17.636 4.797 C 17.636 4.383 17.454 4.134 17.04 4.134 Z M 9.707 11.291 L 13.47 7.47 C 13.763 7.177 14.237 7.177 14.53 7.47 C 14.797 7.736 15.241 7.905 14.954 8.559 L 14.73 8.898 L 10.77 13.229 C 10.358 13.716 9.854 14.082 9.376 13.57 L 8.979 13.197 L 7.574 11.442 C 7.325 11.111 7.291 10.661 7.55 10.338 C 7.793 10.036 8.268 9.776 8.528 10.033 L 8.827 10.356 L 9.676 11.321 L 13.47 7.47 L 9.707 11.291 Z" id="Color"> </path> </g> </g> </g>
</svg>