<!DOCTYPE svg PUBLIC "-//W3C//DTD SVG 1.1//EN" "http://www.w3.org/Graphics/SVG/1.1/DTD/svg11.dtd">
<!-- Uploaded to: SVG Repo, www.svgrepo.com, Transformed by: SVG Repo Mixer Tools -->
<svg fill="#000000" width="72px" height="72px" viewBox="-8.32 -8.32 48.64 48.64" id="icon" xmlns="http://www.w3.org/2000/svg" stroke="#000000" stroke-width="0.576">
<g id="SVGRepo_bgCarrier" stroke-width="0"/>
<g id="SVGRepo_tracerCarrier" stroke-linecap="round" stroke-linejoin="round"/>
<g id="SVGRepo_iconCarrier"> <defs> <style> .cls-1 { fill: none; } </style> </defs> <polygon points="18 13 16.59 14.41 19.17 17 10 17 10 19 19.17 19 16.59 21.59 18 23 23 18 18 13"/> <path d="M11.1716,6l3.4142,3.4142L15.1716,10H28V26H4V6h7.1716m0-2H4A2,2,0,0,0,2,6V26a2,2,0,0,0,2,2H28a2,2,0,0,0,2-2V10a2,2,0,0,0-2-2H16L12.5858,4.5858A2,2,0,0,0,11.1716,4Z"/> </g>
</svg>